<?xml version="1.0" encoding="utf-8"?>
<!-- Generator: Adobe Illustrator 19.0.1, SVG Export Plug-In . SVG Version: 6.00 Build 0)  -->
<svg version="1.1" id="Calque_1" xmlns="http://www.w3.org/2000/svg" xmlns:xlink="http://www.w3.org/1999/xlink" x="0px" y="0px"
	 viewBox="0 0 580 265" enable-background="new 0 0 580 265" xml:space="preserve">
<path d="M236.4,192.7c-34.2-20.3-68.1-41.2-101.9-62c-3.1-1.9-5.4-5.2-8.1-7.9c2-1.8,3.7-2.7,3.8-3.6c0.6-6.4,5.8-8.6,10.1-11.5
	c6.9-4.7,13.9-9.1,20.8-13.7c7.2-4.8,14.5-9.4,21.5-14.5c1.6-1.1,3.3-4.7,2.7-5.7c-3.9-6.5-7-13.3-10.2-20.1
	c-3.4-7.2-9-13.3-14-19.7c-2.8-3.6-1.8-6,1.5-8.2c2-1.4,3.9-2.9,6.2-4.7c-1.8-2.6-3.8-6.9-5-6.7c-5.1,0.9-6.3-2.7-8.3-5.8
	c-3,1.8-5.7,3.4-8.6,5.1c0.9,1.8,1.7,3.4,2.5,4.9c-12.3,11.6-14.6,12.2-21.2,4.9c-1.4,0.7-2.9,1.3-4.3,2.1c-1.4,0.8-3.4,1.4-4,2.7
	c-0.6,1.2,0.3,3.1,0.4,4.6c0,0.4-0.5,0.8-0.8,1.2c-7.6,10.3-16.1,12.2-27.3,5.8c-3.2-1.8-6-4.1-9.2-6c-2.5-1.5-5.1-3.1-7.9-4.1
	c-3.6-1.3-8.9-6.3-8.1-9.7c1.4-5.3-2.7-8.5-3.9-12.7c-0.3-0.9-3-1.8-4-1.3c-1,0.4-2.1,2.9-1.7,3.9c1.6,3.9,4,7.4,5.8,11.2
	c1.5,3.1,4.3,7.2,3.3,9.6C63,38.8,63,42.7,69.7,48.8c3.4,3.1,7.3,5.7,11.1,8.7c-3.2,5.3-1.1,8.5,2.6,13.2
	c9.3,11.8,17,24.9,25.9,38.3c-1.5,0.7-2.8,1.3-3.9,1.8c2,3.6,3.6,6.3,5.2,9.1c-5.1,2.4-9.1,2.2-12-3c-1.5-2.7-3.7-5-5.6-7.6
	c-3.1,1.7-5.8,3.1-9.1,4.9c2.1,2.3,3.6,3.9,5.4,5.8c-10.4-0.7-29.1-10.2-35.3-17.2c-5.4-6-11.2-11.7-17-17.3c-1-1-3.1-1.8-4.5-1.5
	c-5.5,1-11.2,2-16.4,3.9C8.3,91,3.7,96.9,2.4,105.2c-2.6,16.5,7.9,31.8,24.9,36.4c16,4.3,30.2-4.7,31.3-20.1c0-0.4,0.4-0.7,0.5-0.9
	c9.2,4.8,17.7,10.6,27.2,13.8c13.1,4.5,24.7,11.4,36.2,18.7c2.3,1.5,4.5,3.5,5.9,5.8c9.2,14.3,18.1,28.7,27.2,43.1
	c0.9,1.4,2.4,2.5,3.8,3.5c1.7,1.2,3.9,1.9,5.1,3.4c2.2,2.7,3.7,5.9,5.8,8.7c0.8,1.1,2,2.2,3.3,2.5c6.4,1.6,9.2,4.9,8,11.3
	c-0.5,3,0.6,4.5,2.3,6.4c5.3,5.7,10.4,11.6,15.7,17.3c1,1.1,2.3,1.8,3.5,2.8c0.4-0.3,0.8-0.6,1.1-0.9c-0.9-1.8-1.7-3.7-2.7-5.5
	c-1.9-3.7-4.9-7.1-5.8-11c-1.9-9.2-6-17.1-11.1-24.7c-3.1-4.7-6.1-9.5-9-14.4c-0.7-1.2-1.6-3.1-1.2-3.9c2-3.5,0.2-6-1.4-8.8
	c-3.2-5.3-6.4-10.6-9.6-15.9c35.7,18.8,69.9,39.7,106.7,55.9C261.3,214.4,251.3,201.5,236.4,192.7z M35.9,133.6
	c-12.5-0.2-24-10.7-25.2-23.3c-0.7-7,4.4-12.6,12.2-13.7c12.3-1.6,26.1,9.1,27.6,21.5C51.7,127.7,46.1,133.7,35.9,133.6z
	 M174.6,78.3c0.2-8.2-10.4-10-10.7-18.3C173.6,65.1,178.4,73.4,174.6,78.3z M120.5,113.8c-1.2-1.8-2.1-3.3-3.3-4.7
	c-1.3-1.6-1.8-4.6-5.1-2.8c-0.4,0.2-2-1.3-2.7-2.3c-7.3-10.8-14.6-21.8-21.9-32.6c0.8-1.9,1.6-3.8,2.8-6.8c3.3,4.4,6.6,8.5,9.4,12.8
	c4.3,6.5,8.1,13.3,12.4,19.8c2.4,3.7,3.5,8.8,9.2,9.6c0.9,0.1,1.5,2.1,2.5,3.6C122.7,111.8,121.7,112.7,120.5,113.8z M123.1,55.6
	c-1.5-1.8-3.2-3.8-5.2-6.2c7.6-4.3,15.1-8.4,22.4-12.5c-2.6-7.7-2.6-7.7,5.9-10.9c4.8,7.3,9.8,14.4,14.2,22c2.5,4.2,0.7,8.2-3.9,11
	c-3.1-5.4-6.3-11-9.9-17.3c-2.9,1.1-6.5,6.1-10.3,0c-3.2,2.1-6.3,4.1-9.6,6.3C129.6,52.1,127.3,54.1,123.1,55.6z"/>
<path d="M328.6,64.8c-3.2,0.5-4.2,2-3.7,5c0.6,3.9,1.1,7.9,1.5,11.9c0.7,6.7,1.3,13.3,2,21.4c-2-1.8-3-2.6-3.8-3.4
	c-7.8-8.2-15.9-16.2-23.4-24.7c-4.1-4.7-8.4-6.1-14.5-4.6c-3.6,0.9-4.8,1.9-4.2,5.5c3.7,19.4,7.3,38.9,11.2,58.3
	c0.2,1.2,1.9,2.9,3,2.9c8.7,0.7,10.8-1.6,9.6-9.9c-0.2-1.6-0.5-3.3-0.8-4.9c-1.1-7.5-2.2-15-3.3-22.4c0.5-0.2,0.9-0.4,1.4-0.6
	c1.1,0.9,2.3,1.8,3.2,2.8c7.7,8.5,15.4,17,23,25.6c3.8,4.3,8.8,5.9,13.6,3.4c0.9-0.4,1.6-2.1,1.6-3.2c-1.4-18.1-2.7-36.2-4.4-54.2
	C339.7,63.6,338.7,63.3,328.6,64.8z"/>
<path d="M513.3,107.2c-8.1-2.2-16.4-3.9-25.3-5.9c-1,4.7-1.9,8.8-2.9,13.2c5,1.2,9.3,2.2,13.6,3.2c-1.3,4.7-5.6,7.6-11.1,7.9
	c-6.5,0.3-11.4-2.6-14.3-8.2c-3.9-7.5-3.5-15.2,1.4-22.2c3.8-5.5,9.2-7.9,15.9-7.2c6.2,0.6,10.1,4.4,13.5,9.3
	c4.5-1.9,8.8-3.6,13.2-5.5c-4.4-15.6-24.1-24.1-39.8-17.7c-20.9,8.5-28.3,35.9-14.7,54.7c8,11.1,22.2,16.6,32,9.3
	c0.3-0.2,0.9,0.1,1.3,0.2c-0.3,4.9,0,4.7,6.4,6.3c4.3,1,3.9-2.2,4.4-4.2c2.7-9.4,5.3-18.9,7.6-28.4
	C515,110.5,514.2,107.5,513.3,107.2z"/>
<path d="M575.8,96c-13-4-26-8.1-39-12.4c-3.5-1.1-4.5-0.1-5.5,3.3c-5.1,18.4-10.5,36.8-15.8,55.1c-0.5,1.7-0.7,3.5-1.1,5.2
	c13.7,4.3,27,8.5,40.8,12.9c1.4-3.7,2.6-7.3,4.2-10.7c1.3-2.8,0.8-4.2-2.2-5.1c-6.8-2.1-13.6-4.5-20.4-6.7c-3.1-1-5-2.2-3.6-6
	c1.2-3.3,2.4-5.2,6.4-3.6c5.3,2,10.7,3.7,16.1,5.2c1.3,0.3,3.8-0.3,4.2-1.2c1.8-3.5,2.9-7.3,4.5-11.4c-7.3-2.4-14.1-4.6-20.8-7
	c-1.2-0.4-2.9-1.4-3.2-2.5c-1.3-5,2.9-8.8,7.8-7.3c8.4,2.7,16.7,5.4,25.5,8.3c1.5-3.7,2.8-7.2,4.4-10.7
	C579.8,98.5,578.9,97,575.8,96z"/>
<path d="M439.7,76.4c-2.5-10.8-2.8-10.6-13.7-12.2c-3.8-0.6-5.5,0.7-6.8,3.9c-2.8,6.7-6,13.3-8.8,20.1c-5.6,13.5-11,27.1-16.8,41.7
	c3.2,0.2,5.2,0.2,7.1,0.5c5.3,0.7,9.4-0.3,10.7-6.5c0.2-1.2,2.9-2.6,4.5-2.6c5,0,9.9,0.9,14.9,0.9c4.1,0,5.6,1.7,6.1,5.5
	c0.3,1.9,1.5,4.8,2.8,5.2c3.9,1.1,8,1.1,12.4,1.6c-0.1-1.4,0-2-0.1-2.6C447.8,113.4,443.9,94.8,439.7,76.4z M421.1,106.4
	c-0.7-0.1-2-2-1.8-2.6c2.1-5.6,4.5-11.1,6.8-16.6c0.6,0.1,1.1,0.2,1.7,0.2c1.4,6.3,2.9,12.5,4.5,19.6
	C427.8,106.8,424.4,106.8,421.1,106.4z"/>
<path d="M185.8,99.6c14.1,16.8,28.3,33.6,42.2,50.5c4.2,5.1,8.1,0.6,12.1,0.2c3.4-0.3,3.9-2.9,4.1-5.8c0.9-14.8,1.9-29.5,3-44.3
	c0.5-7.1,1.3-14.1,2.1-21.9c-4.8,1.2-9.1,1.9-13,3.4c-1.5,0.6-3.4,2.8-3.5,4.3c-0.9,13.1-1.3,26.3-2,39.4c-0.1,1.3-0.3,2.7-0.4,4
	c-0.4,0.2-0.8,0.3-1.3,0.5c-0.6-0.8-1.1-1.7-1.7-2.5c-8.1-10.6-16.1-21.1-24.3-31.6c-1-1.3-3-3.1-4.1-2.9c-4.8,1.2-9.5,3-14.4,4.7
	C185.3,98.8,185.5,99.2,185.8,99.6z"/>
<path d="M402.9,66.8c0.1-3-0.8-4.3-3.8-4.3c-13.8,0.2-27.6-0.1-41.4,0.5c-10.6,0.5-10.5,0.9-10,11.6c0.1,3.3,1.1,5,4.7,4.7
	c3.5-0.3,7,0,10.5-0.4c3.7-0.4,4.9,0.8,5,4.6c0.2,13.8,0.9,27.6,1,41.4c0,4.3,1.6,5.7,5.6,5.2c0.8-0.1,1.7-0.1,2.5,0
	c4.3,0.6,6-1,5.8-5.5c-0.3-6.6-0.1-13.3-0.1-20c0.1,0,0.1,0,0.2,0c0-6.2-0.1-12.3,0-18.5c0.1-7.8,0.2-7.8,8.1-7.8
	C402.4,78.6,402.4,78.6,402.9,66.8z"/>
<path d="M273.1,83.3c-2.1-9.9-2-9.6-12.3-7.9c-4.6,0.8-5.1,2.6-4.1,6.6c4.3,16.9,8.3,33.8,12.4,50.8c2.4,10,2.4,10,12.2,7.3
	c0.3-0.1,0.8,0,1-0.2c0.8-0.8,1.6-1.7,2.2-2.2c-0.4-1.6-0.6-2.4-0.8-3.2C280.2,117.4,276.7,100.4,273.1,83.3z"/>
</svg>
